<svg width="32" height="32" viewBox="0 0 32 32" fill="none" xmlns="http://www.w3.org/2000/svg">
<path d="M23.0206 24.0921C22.8253 24.2874 22.5087 24.2874 22.3135 24.0921L16 17.7787L9.68655 24.0921C9.49128 24.2874 9.1747 24.2874 8.97944 24.0921L7.46421 22.5769C7.26895 22.3816 7.26895 22.0651 7.46421 21.8698L13.7777 15.5563L7.46421 9.2429C7.26895 9.04763 7.26895 8.73105 7.46421 8.53579L8.97944 7.02056C9.1747 6.8253 9.49128 6.8253 9.68655 7.02056L16 13.334L22.3135 7.02056C22.5087 6.8253 22.8253 6.8253 23.0206 7.02056L24.5358 8.53579C24.7311 8.73105 24.7311 9.04763 24.5358 9.2429L18.2223 15.5563L24.5358 21.8698C24.7311 22.0651 24.7311 22.3816 24.5358 22.5769L23.0206 24.0921Z" fill="#324FC5"/>
</svg>
