<svg width="22" height="22" viewBox="0 0 22 22" fill="none" xmlns="http://www.w3.org/2000/svg">
<path d="M22 12.0714C22 12.3476 21.7761 12.5714 21.5 12.5714H12.5714V21.5C12.5714 21.7761 12.3476 22 12.0714 22H9.92857C9.65243 22 9.42857 21.7761 9.42857 21.5V12.5714H0.500001C0.223858 12.5714 0 12.3476 0 12.0714V9.92857C0 9.65243 0.223858 9.42857 0.5 9.42857H9.42857V0.500001C9.42857 0.223858 9.65243 0 9.92857 0H12.0714C12.3476 0 12.5714 0.223858 12.5714 0.5V9.42857H21.5C21.7761 9.42857 22 9.65243 22 9.92857V12.0714Z" fill="#324FC5"/>
</svg>
